<svg width="120" height="15" viewBox="0 0 120 15" fill="none" xmlns="http://www.w3.org/2000/svg">
<g clip-path="url(#clip0_5072_32066)">
<path d="M43.8389 9.49323C43.8389 7.51277 43.3524 5.94586 42.3942 4.83256C41.4166 3.69781 40.048 3.12256 38.3212 3.12256C36.5943 3.12256 35.1541 3.71927 34.0929 4.89553C33.0914 6.00596 32.584 7.41833 32.584 9.09256C32.584 10.8255 33.0452 12.2292 33.9541 13.2696C34.9571 14.4072 36.4287 14.9867 38.3212 14.9867C39.8137 14.9867 41.0345 14.619 41.9569 13.892C42.7405 13.2696 43.336 12.3652 43.7255 11.2061L43.8359 10.8741H41.7032L41.6509 11.0716C41.4935 11.7509 41.0739 12.348 40.4763 12.743C39.8413 13.1522 39.0891 13.3618 38.3241 13.3425C37.1301 13.3425 36.2167 12.9877 35.5526 12.255C34.9765 11.6197 34.6571 10.7782 34.6212 9.75223H43.8389V9.49323ZM38.3167 4.76388C39.4361 4.76388 40.2853 5.12019 40.9166 5.85142C41.4479 6.46387 41.7375 7.2552 41.7838 8.2025H34.6556C34.7874 7.34406 35.1633 6.53703 35.7421 5.87002C36.0569 5.51002 36.4529 5.22337 36.9002 5.03174C37.3475 4.8401 37.8345 4.74851 38.3241 4.76388H38.3167Z" fill="#059669"/>
<path d="M49.5636 5.04692H52.1979V3.18666H49.4174V1.95317C49.4174 -0.00439562 47.4174 -0.00439453 47.4174 -0.00439453V3.18666H45.498V5.04692H47.4219V10.5247C47.4219 11.8769 47.8831 12.9716 48.7905 13.7816C49.6979 14.5915 50.7979 14.9836 52.1904 14.9836V13.1662C51.2307 13.1662 50.5203 12.8643 50.0144 12.2447C49.6077 11.7326 49.397 11.1021 49.4174 10.4588V5.04692H49.5636Z" fill="#059669"/>
<path d="M25.7278 4.94275C26.6889 4.94275 27.4023 5.24325 27.9098 5.86286C28.3161 6.37456 28.5268 7.00447 28.5068 7.64728V13.0277C28.5068 14.9839 30.5067 14.9839 30.5067 14.9839V7.58288C30.5067 6.24922 30.059 5.16169 29.1725 4.34317C28.2635 3.5218 27.1412 3.12256 25.7397 3.12256C24.3382 3.12256 23.2383 3.51608 22.3413 4.326C21.4443 5.13593 20.9727 6.23062 20.9727 7.58288V14.9839H22.9696V7.65157C22.9486 7.0082 23.1595 6.37753 23.5666 5.86572C24.0577 5.24325 24.7681 4.94275 25.7278 4.94275Z" fill="#059669"/>
<path d="M63.0118 4.34299C62.1044 3.52161 60.9835 3.12237 59.5791 3.12237C58.494 3.12237 57.5836 3.36564 56.809 3.8536V0H54.8105V14.9837H56.8075V7.65139C56.7865 7.00801 56.9974 6.37735 57.4045 5.86554C57.9105 5.24736 58.6209 4.94686 59.5806 4.94686C60.5402 4.94686 61.2552 5.24736 61.7611 5.86697C62.1637 6.3799 62.3702 7.00987 62.3462 7.65139V13.049C62.3462 15.0051 64.3461 15.0051 64.3461 15.0051V7.5827C64.3491 6.24904 63.8984 5.1615 63.0118 4.34299Z" fill="#059669"/>
<path d="M70.8059 14.7532L66.3926 3.3584H68.5761L71.9089 12.8557H71.9551L75.1968 3.3584H77.2416L72.8984 14.7518L70.8059 14.7532Z" fill="#059669"/>
<path d="M78.7635 6.71986C78.9911 6.02221 79.3666 5.37718 79.8664 4.82525C80.3675 4.28092 80.987 3.84862 81.6813 3.55885C83.2778 2.94067 85.0623 2.94067 86.6588 3.55885C87.3495 3.8503 87.9658 4.28244 88.4647 4.82525C88.9645 5.37746 89.3405 6.02237 89.5692 6.71986C89.819 7.47934 89.9429 8.27174 89.9363 9.06808C89.9435 9.86024 89.8196 10.6485 89.5692 11.4034C89.3387 12.0972 88.9629 12.7385 88.4647 13.288C87.9681 13.8292 87.3523 14.2579 86.6618 14.543C85.0622 15.1458 83.2839 15.1458 81.6843 14.543C80.9892 14.2598 80.369 13.831 79.8694 13.288C79.3701 12.739 78.9937 12.0976 78.7635 11.4034C78.5119 10.6487 78.3874 9.86036 78.3948 9.06808C78.388 8.27161 78.5124 7.47911 78.7635 6.71986ZM80.7515 10.9069C80.918 11.402 81.1876 11.8596 81.544 12.252C81.8718 12.6059 82.2755 12.8875 82.7276 13.0777C83.1805 13.2678 83.6696 13.3659 84.1641 13.3659C84.6586 13.3659 85.1477 13.2678 85.6006 13.0777C86.0527 12.8875 86.4564 12.6059 86.7842 12.252C87.1406 11.8595 87.4107 11.4019 87.5782 10.9069C87.9585 9.70525 87.9554 8.42204 87.5692 7.22213C87.4002 6.72469 87.1304 6.26417 86.7752 5.867C86.4497 5.50761 86.0456 5.22133 85.5917 5.02845C85.1383 4.83967 84.6494 4.74226 84.1551 4.74226C83.6609 4.74226 83.1719 4.83967 82.7186 5.02845C82.2647 5.22133 81.8606 5.50761 81.5351 5.867C81.1798 6.2639 80.9105 6.72453 80.7425 7.22213C80.3585 8.42083 80.3585 9.70244 80.7425 10.9011L80.7515 10.9069Z" fill="#059669"/>
<path d="M104.434 5.343C103.944 4.9471 103.285 4.74867 102.458 4.74772C101.845 4.72726 101.236 4.85625 100.688 5.12263C100.23 5.35793 99.8387 5.69866 99.551 6.11429C99.257 6.54738 99.05 7.02929 98.9406 7.53524C98.8171 8.08203 98.7555 8.64 98.757 9.19946C98.7561 9.71939 98.8217 10.2375 98.9525 10.742C99.0714 11.2177 99.2776 11.6693 99.5614 12.0757C99.8385 12.466 100.209 12.7869 100.642 13.0116C101.131 13.2576 101.677 13.3793 102.229 13.365C103.193 13.365 103.947 13.1222 104.493 12.6366C105.038 12.1511 105.371 11.468 105.491 10.5875H107.491C107.276 11.9984 106.729 13.0855 105.849 13.8487C104.97 14.6119 103.771 14.9935 102.252 14.9935C101.431 15.0077 100.615 14.8657 99.851 14.5756C99.1797 14.3145 98.5813 13.9069 98.1033 13.385C97.6227 12.8479 97.263 12.2214 97.0466 11.5448C96.8016 10.785 96.6813 9.99328 96.6899 9.19803C96.6837 8.38919 96.7998 7.58377 97.0346 6.80688C97.2453 6.10052 97.6004 5.4414 98.0794 4.86792C98.5543 4.3114 99.1557 3.86646 99.8376 3.56717C100.611 3.2381 101.451 3.07639 102.297 3.09352C102.937 3.08929 103.574 3.16726 104.193 3.32533C104.756 3.46792 105.287 3.71061 105.757 4.04082C106.213 4.36975 106.592 4.7865 106.87 5.2643C107.178 5.80568 107.366 6.40185 107.422 7.0158H105.397C105.244 6.29459 104.923 5.73699 104.434 5.343Z" fill="#059669"/>
<path d="M118.083 14.0263C117.194 14.6712 116.076 14.9941 114.728 14.9951C113.881 15.0139 113.04 14.8638 112.258 14.5543C111.582 14.2761 110.981 13.8543 110.499 13.3208C110.009 12.767 109.645 12.1213 109.429 11.4248C109.184 10.6453 109.049 9.83766 109.028 9.02365C109.018 8.21513 109.158 7.41138 109.441 6.64967C109.699 5.95928 110.093 5.32319 110.602 4.77654C111.096 4.25051 111.699 3.82977 112.372 3.54161C113.077 3.24336 113.841 3.09309 114.611 3.10087C115.668 3.10087 116.545 3.31027 117.243 3.72907C117.922 4.13172 118.497 4.67855 118.922 5.32746C119.344 5.976 119.64 6.6926 119.795 7.44243C119.951 8.15964 120.017 8.89235 119.99 9.62466H111.095C111.077 10.1046 111.139 10.5842 111.278 11.0456C111.41 11.483 111.637 11.8885 111.946 12.2347C112.267 12.591 112.667 12.8736 113.117 13.0618C113.647 13.2784 114.219 13.3838 114.795 13.3709C115.624 13.3709 116.302 13.1873 116.829 12.82C117.356 12.4527 117.705 11.8942 117.874 11.1443H119.807C119.547 12.4189 118.972 13.3795 118.083 14.0263ZM117.613 6.70978C117.357 6.12189 116.924 5.62082 116.369 5.27116C115.814 4.92149 115.162 4.73925 114.498 4.74792C114.029 4.74101 113.563 4.82725 113.131 5.0012C112.737 5.16244 112.382 5.39854 112.086 5.69522C111.793 5.99346 111.559 6.34073 111.396 6.71979C111.226 7.11664 111.125 7.53778 111.098 7.96617H117.925C117.895 7.53352 117.79 7.10876 117.613 6.70978Z" fill="#059669"/>
<path d="M94.2964 3.3584V14.7518H92.3457V3.3584H94.2964Z" fill="#059669"/>
<path d="M93.3197 2.12212C93.8835 2.12212 94.3406 1.6839 94.3406 1.14333C94.3406 0.602767 93.8835 0.164551 93.3197 0.164551C92.7559 0.164551 92.2988 0.602767 92.2988 1.14333C92.2988 1.6839 92.7559 2.12212 93.3197 2.12212Z" fill="#059669"/>
<path d="M11.7505 11.396C11.0057 11.3966 10.2682 11.2556 9.58065 10.9813C8.89307 10.7069 8.26902 10.3046 7.74458 9.79765C6.9169 9.00736 5.79636 8.56366 4.62824 8.56366C3.46013 8.56366 2.33959 9.00736 1.5119 9.79765L1.40444 9.90068L0 8.55271L0.105966 8.44968C1.3065 7.30182 2.93278 6.65723 4.62824 6.65723C6.32371 6.65723 7.94999 7.30182 9.15052 8.44968C9.49241 8.77833 9.89857 9.03909 10.3457 9.217C10.7929 9.39491 11.2723 9.48649 11.7564 9.48649C12.2406 9.48649 12.7199 9.39491 13.1671 9.217C13.6143 9.03909 14.0204 8.77833 14.3623 8.44968L14.4683 8.34665L15.8757 9.69319L15.7683 9.79622C15.2426 10.3049 14.6167 10.7083 13.9269 10.9829C13.2372 11.2576 12.4973 11.398 11.7505 11.396Z" fill="#059669"/>
</g>
<defs>
<clipPath id="clip0_5072_32066">
<rect width="120" height="15" fill="white"/>
</clipPath>
</defs>
</svg>
